<?xml version="1.0" encoding="utf-8"?>
<!-- Generator: Adobe Illustrator 24.0.0, SVG Export Plug-In . SVG Version: 6.00 Build 0)  -->
<svg version="1.1" id="レイヤー_1" xmlns="http://www.w3.org/2000/svg" xmlns:xlink="http://www.w3.org/1999/xlink" x="0px"
	 y="0px" viewBox="0 0 149.8 40" style="enable-background:new 0 0 149.8 40;" xml:space="preserve">
<style type="text/css">
	.st0{fill:#DD000A;}
</style>
<g>
	<path class="st0" d="M90.9,17.3l-8.9,0l-8.3,20.5l-0.4-0.5l-7.6-9.6l9.9-10.5l-8.7,0l-8.3,9.4l0-9.4l-7.5,0L51,39.7l7.5,0l0-10
		l7.5,10l14.6,0l1.5-3.8l8.6,0l1.5,3.8l7.7,0L90.9,17.3z M83.9,31.4l2.5-7.6l2.5,7.6L83.9,31.4z"/>
	<path class="st0" d="M141.4,39.9l7.7,0l-9-22.5l-8.9,0l-9.1,22.4l7.7,0l1.5-3.8l8.6,0L141.4,39.9z M133.2,31.5l2.5-7.6l2.5,7.6
		L133.2,31.5z"/>
	<polygon class="st0" points="47.7,39.7 47.8,28.4 47.8,17.2 44.2,17.2 40.1,17.2 40.1,28.4 40.1,39.6 44.2,39.6 	"/>
	<path class="st0" d="M106.5,30.9c-2.6-0.2-4.1-0.3-5.5-1.7c-0.9-0.9-1.8-2.4-1.8-5.2c0-2.8,0.7-4.3,2-5.4c2-1.7,5.9-1.7,10-1.7
		c6.3,0,8.2,0.6,10,2.8c0.7,0.8,1.2,2.7,1.3,4.7l-6.9,0c0.1-2-2.3-2.1-4.9-2.1c-1.9,0-5.2-0.1-5.3,1.7c-0.1,1.9,2.2,1.7,4,1.8
		c0,0,3.8,0.2,6.6,0.3c3,0.1,4,0.9,4.9,1.7c1.3,1.3,1.6,3.5,1.6,5.3c0,6.2-4,6.9-10.9,6.9c-6.9,0-8.5-0.6-10.1-2
		c-1.1-1-2.1-2.8-2.1-5.6l6.7,0c-0.1,2,2.7,2.1,5.3,2.1c1.9,0,4.6,0.2,4.9-1.6c0.2-1.8-1.8-1.7-3.6-1.8
		C112.8,31.2,109.3,31.1,106.5,30.9"/>
	<polygon class="st0" points="44,0.1 42.1,5.8 36.1,5.8 41,9.3 39.1,15 44,11.5 48.8,15 47,9.3 51.9,5.8 45.9,5.8 	"/>
	<polygon class="st0" points="19.5,23.7 15.9,12.3 8,12.2 0.6,39.5 9,39.5 12.1,25.7 16.1,39.6 22.8,39.6 26.8,25.7 29.9,39.6 
		38.2,39.6 31,12.3 23.1,12.3 	"/>
</g>
</svg>
